<svg id="Layer_1" data-name="Layer 1" xmlns="http://www.w3.org/2000/svg" viewBox="0 0 122.88 121.22"><defs><style>.cls-1{fill-rule:evenodd;}</style></defs><title>data-quality</title><path class="cls-1" d="M17.79,26.82c8.15,2.73,19.49,4.41,32.1,4.41S73.83,29.55,82,26.82c7.15-2.38,11.58-5.28,11.58-8.1S89.13,13,82,10.61c-8.15-2.71-19.49-4.4-32.09-4.4s-23.95,1.68-32.1,4.4c-15.18,5.07-15.6,11,0,16.21Zm80,41.46A25.13,25.13,0,1,1,72.62,93.41,25.13,25.13,0,0,1,97.75,68.28Zm0,10L102.14,89l11.57.86-8.85,7.49,2.75,11.26-9.86-6.1-9.87,6.1,2.76-11.26-8.85-7.49L93.36,89l4.39-10.73ZM6.28,48.14c.56,2.63,4.85,5.29,11.51,7.51,8.15,2.72,19.49,4.4,32.1,4.4S73.83,58.37,82,55.65c7.15-2.39,11.58-5.28,11.58-8.11h0V28.13a39.44,39.44,0,0,1-9.65,4.56c-8.78,2.92-20.83,4.74-34,4.74s-25.28-1.81-34.06-4.74a39.09,39.09,0,0,1-9.54-4.5v20ZM63.66,93.07a135.07,135.07,0,0,1-13.77.68c-13.24,0-25.28-1.81-34.06-4.75a39.09,39.09,0,0,1-9.54-4.5v18.6c.56,2.64,4.85,5.29,11.51,7.51C26,113.33,37.29,115,49.9,115a123.93,123.93,0,0,0,20.9-1.68,32.35,32.35,0,0,0,5.32,5.27,124.76,124.76,0,0,1-26.22,2.61c-13.24,0-25.28-1.81-34.06-4.74C11.21,114.93.08,109.86.08,103.78v-2Q0,60.27,0,18.72C0,12.92,6,8,15.82,4.74,24.6,1.81,36.65,0,49.89,0S75.16,1.81,83.94,4.75s14.7,7.31,15.68,12.44a3,3,0,0,1,.18,1V60.85a31.91,31.91,0,0,0-3.68-.21c-.85,0-1.69,0-2.52.1V57A39.44,39.44,0,0,1,84,61.53c-8.78,2.93-20.83,4.75-34.05,4.75s-25.28-1.81-34.06-4.75A38.72,38.72,0,0,1,6.3,57V75.63c.56,2.64,4.85,5.29,11.51,7.52,8.15,2.71,19.49,4.4,32.1,4.4a134.1,134.1,0,0,0,14.39-.76,30.89,30.89,0,0,0-.64,6.28Z"/></svg>